<svg xmlns="http://www.w3.org/2000/svg" version="1.1" xmlns:xlink="http://www.w3.org/1999/xlink" xmlns:svgjs="http://svgjs.com/svgjs" width="1000" height="1000"><rect width="1000" height="1000" rx="200" ry="200" fill="#ffffff"></rect><g transform="matrix(1.7578125,0,0,1.7578125,50.00001047924161,49.1916481051594)"><svg xmlns="http://www.w3.org/2000/svg" version="1.1" xmlns:xlink="http://www.w3.org/1999/xlink" xmlns:svgjs="http://svgjs.com/svgjs" width="512" height="512"><svg id="bold" enable-background="new 0 0 24 24" height="512" viewBox="0 0 24 24" width="512" xmlns="http://www.w3.org/2000/svg"><g><path d="m14.16 11.455c.632-.584 1.035-1.413 1.035-2.34 0-1.762-1.434-3.196-3.195-3.196s-3.195 1.434-3.195 3.196c0 .927.403 1.755 1.035 2.34-1.784 1.096-2.992 3.412-2.992 5.486 0 2.841 2.312 5.152 5.152 5.152s5.152-2.311 5.152-5.152c0-2.074-1.208-4.39-2.992-5.486z"></path></g><g><g><path d="m21.32 1.05v5.62c0 .35-.19.67-.49.85l-3.26 1.98-.98.59c.03-.14.06-.28.08-.42.02-.18.03-.37.03-.55 0-.46-.06-.89-.19-1.31l2.81-1.7v-5.06c0-.55.44-1 1-1 .55 0 1 .45 1 1z"></path></g></g><g><g><path d="m21.32 17.43v5.62c0 .55-.45 1-1 1-.56 0-1-.45-1-1v-5.16l-.69-.59c.02-.12.02-.24.02-.36 0-.91-.18-1.84-.52-2.72l2.84 2.45c.22.19.35.47.35.76z"></path></g></g><g><g><path d="m23.98 17.25c.1.54-.25 1.06-.8 1.16-.06.02-.12.02-.18.02-.47 0-.89-.34-.98-.82l-.61-3.24-3.5-.68c-.31-.71-.73-1.39-1.22-1.98-.1-.12-.21-.24-.32-.36l1.07.21 5.02.98c.41.07.72.39.79.79z"></path></g></g><g><g><path d="m23.98 5.87-.73 3.92c-.07.4-.38.72-.79.8l-5.02.97-.75.15c-.1-.12-.21-.24-.32-.36-.05-.06-.1-.11-.16-.17.17-.35.3-.71.38-1.09.03-.14.06-.28.08-.42l.9-.17 3.84-.75.61-3.24c.1-.54.62-.91 1.16-.8.55.1.9.62.8 1.16z"></path></g></g><g><g><path d="m7.33 9.67c.02.14.05.28.08.42l-.98-.59-3.26-1.98c-.3-.18-.49-.5-.49-.85v-5.62c0-.55.45-1 1-1 .56 0 1 .45 1 1v5.06l2.81 1.7c-.13.42-.19.85-.19 1.31 0 .18.01.37.03.55z"></path></g></g><g><g><path d="m5.35 16.94c0 .12 0 .24.02.35l-.69.6v5.16c0 .55-.44 1-1 1-.55 0-1-.45-1-1v-5.62c0-.29.13-.57.35-.76l2.84-2.46c-.34.88-.52 1.82-.52 2.73z"></path></g></g><g><g><path d="m7.63 11.35c-.11.12-.22.24-.32.36-.49.59-.91 1.27-1.22 1.98l-3.5.68-.61 3.24c-.09.48-.51.82-.98.82-.06 0-.12 0-.18-.02-.55-.1-.9-.62-.8-1.16l.73-3.92c.07-.4.38-.72.79-.79l5.02-.98z"></path></g></g><g><g><path d="m7.79 11.18c-.06.06-.11.11-.16.17-.11.12-.22.24-.32.36l-.75-.15-5.02-.97c-.41-.08-.72-.4-.79-.8l-.73-3.92c-.1-.54.25-1.06.8-1.16.54-.11 1.06.26 1.16.8l.61 3.24 3.84.75.9.17c.02.14.05.28.08.42.08.38.21.74.38 1.09z"></path></g></g></svg></svg></g></svg>